ply
format ascii 1.0
element vertex 11
property float x
property float y
property float z
property uchar red
property uchar green
property uchar blue
end_header
53.000000 80.000000 79.000000 255 0 0
46.000000 43.000000 42.000000 255 0 0
32.000000 93.000000 52.000000 255 0 0
29.000000 28.000000 40.000000 0 255 0
82.000000 60.000000 68.000000 0 255 0
23.000000 58.000000 81.000000 0 255 0
75.000000 27.000000 37.000000 0 255 0
17.000000 61.000000 45.000000 0 255 0
58.000000 27.000000 68.000000 0 255 0
27.000000 28.000000 73.000000 0 255 0
82.000000 34.000000 61.000000 0 255 0
